<svg width="114" height="114" viewBox="0 0 114 114" fill="none" xmlns="http://www.w3.org/2000/svg">
<path d="M57 7.125L10.6875 24.9375L17.8125 85.5L57 106.875L96.1875 85.5L103.312 24.9375L57 7.125Z" fill="#DD0031"/>
<path d="M57 7.125V106.875L96.1875 85.5L103.312 24.9375L57 7.125Z" fill="#C3002F"/>
<path d="M56.9993 18.1465L28.0477 83.2335H38.8423L44.6623 68.6697H69.2365L75.0565 83.2335H85.8512L56.9993 18.1465ZM65.4559 59.6922H48.5426L56.9993 39.2937L65.4559 59.6922Z" fill="white"/>
<path d="M56.9993 18.1465L28.0477 83.2335H38.8423L44.6623 68.6697H69.2365L75.0565 83.2335H85.8512L56.9993 18.1465ZM65.4559 59.6922H48.5426L56.9993 39.2937L65.4559 59.6922Z" fill="white"/>
</svg>
