<svg width="113" height="113" viewBox="0 0 113 113" fill="none" xmlns="http://www.w3.org/2000/svg">
<path fill-rule="evenodd" clip-rule="evenodd" d="M20.8344 66.5535C19.6096 69.4956 18.9254 72.6345 18.8145 75.8195C18.9835 77.7838 19.6534 79.6719 20.7602 81.3035C22.8429 83.7147 25.3474 85.7262 28.1511 87.2395L46.2594 99.2952C48.4876 101.069 50.9931 102.462 53.675 103.42C55.4163 103.834 57.2306 103.834 58.9719 103.42C61.6717 102.474 64.1973 101.09 66.4475 99.3235L84.75 87.2607C87.5824 85.743 90.1154 83.7233 92.2257 81.3C93.3404 79.6596 94.0096 77.7576 94.1679 75.7806C94.0476 72.5698 93.3453 69.4074 92.095 66.4475L76.0879 16.0707C75.7306 14.4392 75.0848 12.8846 74.181 11.4801C73.5227 10.6803 72.6722 10.0606 71.7091 9.67917C70.0999 9.24287 68.4258 9.09698 66.7654 9.24836H45.9239C44.2629 9.09737 42.5882 9.24689 40.9802 9.68976C40.0148 10.0704 39.1635 10.693 38.5083 11.4978C37.6085 12.9023 36.9685 14.4573 36.6191 16.0884L20.8344 66.5535ZM67.5881 19.941C68.3327 21.1247 68.86 22.4317 69.1454 23.8006L82.889 68.9441C77.7269 66.2666 72.186 64.3934 66.4581 63.3895L57.5276 33.162C57.4727 32.9834 57.3758 32.8207 57.2451 32.6873C57.1143 32.5539 56.9535 32.4538 56.7761 32.3953C56.5987 32.3369 56.4099 32.3218 56.2254 32.3514C56.041 32.3809 55.8663 32.4542 55.7161 32.5652C55.5144 32.7127 55.3668 32.9224 55.2959 33.162L46.4677 63.3789C40.7128 64.3807 35.1461 66.2613 29.9627 68.9547L43.7628 23.8112C44.0453 22.4398 44.5742 21.1309 45.3236 19.948C45.8702 19.2772 46.577 18.755 47.3788 18.4296C48.7296 18.0645 50.135 17.9449 51.528 18.0765H61.3908C62.785 17.9448 64.1916 18.0644 65.5435 18.4296C66.3477 18.7559 67.056 19.2808 67.6023 19.9551L67.5881 19.941ZM56.9485 74.3681C61.1983 74.6142 65.4127 73.4701 68.9547 71.1088C69.3573 72.3763 69.5001 73.7119 69.3745 75.0359C69.2489 76.3598 68.8575 77.6448 68.2238 78.814C66.9209 81.0284 65.03 82.8386 62.7609 84.0438C60.3809 85.5551 58.3327 86.8688 58.3327 90.3541C58.3298 91.4721 58.5822 92.576 59.0708 93.5817C57.4657 92.9151 56.0942 91.7879 55.1295 90.3423C54.1647 88.8968 53.65 87.1977 53.6503 85.4598V85.2444C53.6503 82.8325 53.6503 79.8628 50.2532 79.8628C49.7797 79.8625 49.3106 79.9548 48.8725 80.1347C47.9909 80.4997 47.2899 81.1994 46.9233 82.0804C46.7412 82.5181 46.6464 82.9871 46.6443 83.4611C44.3159 80.9183 43.0651 77.5711 43.1554 74.1245C43.1389 72.6328 43.3472 71.1471 43.7734 69.7175C45.1859 72.3906 50.5534 74.3787 56.9485 74.3787V74.3681Z" fill="#FF5D01"/>
</svg>
