<svg width="87" height="87" viewBox="0 0 87 87" fill="none" xmlns="http://www.w3.org/2000/svg">
<g clip-path="url(#clip0_4_13)">
<path d="M0 75.7822C0 81.9783 5.02239 87 11.2178 87H75.7822C81.9783 87 87 81.9776 87 75.7822V11.2178C87 5.02171 81.9776 0 75.7822 0H11.2178C5.02171 0 0 5.02239 0 11.2178V75.7822Z" fill="#563D7C"/>
<path d="M36.077 38.4833V26.1627H46.922C47.9548 26.1627 48.9508 26.2488 49.9099 26.4209C50.869 26.5931 51.7174 26.9005 52.4552 27.3431C53.1929 27.7858 53.7831 28.4006 54.2258 29.1875C54.6684 29.9745 54.8898 30.9827 54.8898 32.2123C54.8898 34.4256 54.2258 36.0241 52.8978 37.0077C51.5698 37.9914 49.873 38.4833 47.8073 38.4833H36.077ZM24.4942 17.1621V69.8379H50.0206C52.3814 69.8379 54.6807 69.5428 56.9186 68.9526C59.1564 68.3624 61.1484 67.4525 62.8944 66.2229C64.6404 64.9933 66.0299 63.4071 67.0627 61.4644C68.0956 59.5216 68.612 57.2223 68.612 54.5663C68.612 51.271 67.8128 48.4553 66.2143 46.119C64.6158 43.7828 62.1936 42.1475 58.9474 41.213C61.3082 40.0817 63.0911 38.6308 64.2961 36.8602C65.5012 35.0896 66.1036 32.8763 66.1036 30.2204C66.1036 27.7612 65.6979 25.6955 64.8863 24.0232C64.0748 22.351 62.9313 21.0107 61.4558 20.0025C59.9803 18.9942 58.2097 18.2687 56.1439 17.8261C54.0782 17.3834 51.7912 17.1621 49.2828 17.1621H24.4942ZM36.077 60.8373V46.3772H48.6926C51.201 46.3772 53.2175 46.9552 54.7422 48.111C56.2669 49.2668 57.0292 51.1972 57.0292 53.9024C57.0292 55.2795 56.7956 56.4107 56.3284 57.296C55.8611 58.1814 55.234 58.8822 54.4471 59.3986C53.6602 59.9151 52.7503 60.2839 51.7174 60.5053C50.6845 60.7266 49.6025 60.8373 48.4713 60.8373H36.077Z" fill="white"/>
</g>
<defs>
<clipPath id="clip0_4_13">
<rect width="87" height="87" fill="white"/>
</clipPath>
</defs>
</svg>
