<svg width="110" height="110" viewBox="0 0 110 110" fill="none" xmlns="http://www.w3.org/2000/svg">
<path d="M20.2881 93.5034L12.5675 6.875H97.4325L89.7016 93.4897L54.9484 103.125L20.2881 93.5034Z" fill="#1572B6"/>
<path d="M55 95.7619L83.0844 87.976L89.6912 13.9597H55V95.7619Z" fill="#33A9DC"/>
<path d="M55 45.3441H69.0594L70.0287 34.4644H55V23.8391H55.0378H81.6406L81.3863 26.6888L78.7772 55.9694H55V45.3441Z" fill="white"/>
<path d="M55.0653 72.9368L55.0172 72.9506L43.1853 69.7537L42.4291 61.2803H36.6781H31.7625L33.251 77.9625L55.0138 84.0056L55.0653 83.9918V72.9368Z" fill="#EBEBEB"/>
<path d="M68.1553 55.519L66.8766 69.7469L55.0275 72.9437V83.9987L76.8075 77.9625L76.9691 76.1681L78.815 55.519H68.1553Z" fill="white"/>
<path d="M55.0378 23.8391V30.4391V34.4369V34.4644H29.4078H29.3735L29.1603 32.0754L28.6756 26.6888L28.4213 23.8391H55.0378Z" fill="#EBEBEB"/>
<path d="M55 45.344V51.944V55.9418V55.9693H43.3503H43.3159L43.1028 53.5802L42.6216 48.1937L42.3672 45.344H55Z" fill="#EBEBEB"/>
</svg>
