<svg width="104" height="104" viewBox="0 0 104 104" fill="none" xmlns="http://www.w3.org/2000/svg">
<path d="M8.40242 56.5929C5.86586 54.0563 5.86586 49.9437 8.40242 47.4071L47.4071 8.40242C49.9437 5.86586 54.0563 5.86586 56.5929 8.40242L95.5975 47.4071C98.1341 49.9437 98.1341 54.0563 95.5975 56.5929L56.5929 95.5975C54.0563 98.1341 49.9437 98.1341 47.4071 95.5975L8.40242 56.5929Z" fill="#EE513B"/>
<path d="M39.4839 16.4497L35.5342 20.3996L45.7356 30.601C45.3229 31.4864 45.0924 32.4738 45.0924 33.5151C45.0924 36.4713 46.9498 38.9936 49.5612 39.9787V64.9341C46.9498 65.9192 45.0924 68.4415 45.0924 71.3977C45.0924 75.2119 48.1845 78.304 51.9987 78.304C55.8129 78.304 58.9049 75.2119 58.9049 71.3977C58.9049 68.7178 57.3784 66.394 55.1473 65.2494V40.0128L64.8989 49.7644C64.5063 50.6318 64.2879 51.5948 64.2879 52.6088C64.2879 56.423 67.3799 59.5151 71.1941 59.5151C75.0084 59.5151 78.1004 56.423 78.1004 52.6088C78.1004 48.7946 75.0084 45.7026 71.1941 45.7026C70.4528 45.7026 69.7391 45.8192 69.0696 46.0354L58.5965 35.5622C58.797 34.9155 58.9049 34.2278 58.9049 33.5151C58.9049 29.7008 55.8129 26.6088 51.9987 26.6088C51.286 26.6088 50.5986 26.7167 49.9515 26.9172L39.4839 16.4497Z" fill="white"/>
</svg>
