<svg width="82" height="82" viewBox="0 0 82 82" fill="none" xmlns="http://www.w3.org/2000/svg">
<g clip-path="url(#clip0_4_196)">
<path fill-rule="evenodd" clip-rule="evenodd" d="M41 0C63.6443 0 82 18.8187 82 42.037C82 60.6059 70.2658 76.3582 53.9847 81.9219C51.906 82.336 51.168 81.0233 51.168 79.904C51.168 78.5182 51.2172 73.9919 51.2172 68.3667C51.2172 64.4471 49.9052 61.8889 48.4333 60.5851C57.564 59.5437 67.158 55.9887 67.158 39.8429C67.158 35.2509 65.5672 31.5037 62.935 28.5599C63.3614 27.498 64.7677 23.2222 62.5332 17.433C62.5332 17.433 59.0974 16.3066 51.2705 21.7432C47.9946 20.8125 44.485 20.3442 41 20.3278C37.515 20.3442 34.0095 20.8125 30.7377 21.7432C22.9026 16.3066 19.4586 17.433 19.4586 17.433C17.2323 23.2222 18.6386 27.498 19.0609 28.5599C16.441 31.5037 14.8379 35.2509 14.8379 39.8429C14.8379 55.9477 24.4114 59.5572 33.5175 60.6191C32.3449 61.6687 31.283 63.5203 30.914 66.2386C28.577 67.3128 22.6402 69.1719 18.983 62.7472C18.983 62.7472 16.8141 58.7082 12.6977 58.413C12.6977 58.413 8.7002 58.3599 12.4189 60.9675C12.4189 60.9675 15.1044 62.259 16.9699 67.1175C16.9699 67.1175 19.3766 74.6203 30.7828 72.0783C30.8033 75.592 30.8402 78.9036 30.8402 79.904C30.8402 81.0151 30.0858 82.3154 28.0399 81.9259C11.7465 76.3704 0 60.61 0 42.037C0 18.8187 18.3598 0 41 0Z" fill="black"/>
</g>
<defs>
<clipPath id="clip0_4_196">
<rect width="82" height="82" fill="white"/>
</clipPath>
</defs>
</svg>
