<svg width="105" height="105" viewBox="0 0 105 105" fill="none" xmlns="http://www.w3.org/2000/svg">
<path d="M98.2734 58.4325L93.1219 42.9844L82.9369 12.3375C82.8162 11.9905 82.59 11.69 82.2899 11.4782C81.9897 11.2663 81.6308 11.1537 81.2634 11.1563C80.8972 11.1551 80.5397 11.2683 80.2409 11.4801C79.9421 11.6918 79.7168 11.9916 79.5966 12.3375L69.4116 42.9647H35.5819L25.3969 12.331C25.2764 11.9857 25.0508 11.6868 24.7519 11.4762C24.453 11.2655 24.0957 11.1537 23.73 11.1563C23.3635 11.1541 23.0056 11.2669 22.7066 11.4788C22.4076 11.6907 22.1825 11.9911 22.0631 12.3375L11.8912 42.9647L6.74624 58.4325C6.51854 59.1217 6.51876 59.8659 6.74686 60.5549C6.97497 61.244 7.41884 61.8413 8.0128 62.2585L52.5066 93.8372L96.9872 62.2585C97.5838 61.8433 98.031 61.2471 98.2627 60.5581C98.4943 59.8691 98.4981 59.1239 98.2734 58.4325Z" fill="#FC6D26"/>
<path d="M52.5 93.8174L69.4181 42.958H35.5884L52.5 93.8174Z" fill="#E24329"/>
<path d="M52.5 93.8174L35.5753 42.958H11.8978L52.5 93.8174Z" fill="#FC6D26"/>
<path d="M11.8781 42.978L6.73312 58.4262C6.50541 59.1153 6.50563 59.8595 6.73374 60.5486C6.96185 61.2376 7.40572 61.8349 7.99968 62.2521L52.5 93.844L11.8781 42.9846V42.978Z" fill="#FCA326"/>
<path d="M11.8912 42.9779H35.595L25.3969 12.3507C25.2766 12.0048 25.0513 11.705 24.7525 11.4933C24.4537 11.2815 24.0962 11.1683 23.73 11.1695C23.3626 11.1669 23.0037 11.2795 22.7036 11.4913C22.4034 11.7032 22.1772 12.0037 22.0565 12.3507L11.8912 42.9779Z" fill="#E24329"/>
<path d="M52.5 93.8174L69.4181 42.958H93.135L52.5 93.8174Z" fill="#FC6D26"/>
<path d="M93.1219 42.978L98.2603 58.4262C98.4891 59.1152 98.4894 59.8598 98.2612 60.5491C98.033 61.2384 97.5885 61.8356 96.9937 62.2521L52.5 93.8177L93.1087 42.978H93.1219Z" fill="#FCA326"/>
<path d="M93.1219 42.978H69.4312L79.6097 12.3508C79.7294 12.0032 79.9555 11.7021 80.2558 11.4901C80.5561 11.2781 80.9155 11.166 81.2831 11.1695C82.0378 11.1695 82.7072 11.6486 82.95 12.3508L93.135 42.978H93.1219Z" fill="#E24329"/>
</svg>
