<svg width="116" height="116" viewBox="0 0 116 116" fill="none" xmlns="http://www.w3.org/2000/svg">
<path d="M98.1976 57.2244C98.1976 54.719 97.2024 52.3162 95.4308 50.5446C93.6591 48.7729 91.2563 47.7777 88.7509 47.7777C88.4192 47.7773 88.0876 47.7943 87.7576 47.8284L100.735 9.55566H45.588L58.5474 47.7958C58.3589 47.7958 58.1668 47.7777 57.9746 47.7777C55.7188 47.7751 53.5364 48.5799 51.8223 50.0465C50.1082 51.5131 48.9755 53.5446 48.6291 55.7738C48.2827 58.0029 48.7454 60.2824 49.9336 62.2C51.1218 64.1176 52.957 65.5468 55.1073 66.2289C53.0977 69.6888 50.5957 72.8381 47.6796 75.5778C43.8838 79.2065 39.3741 82.0051 34.4375 83.7957C31.6717 82.4849 29.5085 80.1704 28.3875 77.3223C27.2664 74.4743 27.2716 71.3063 28.4019 68.4619C28.681 67.8094 28.9638 67.1497 29.232 66.4899C31.3383 65.9939 33.2106 64.79 34.536 63.0794C35.8614 61.3689 36.5596 59.2553 36.5139 57.0918C36.4683 54.9284 35.6816 52.8461 34.2852 51.193C32.8888 49.5399 30.9675 48.416 28.8421 48.0093C26.7167 47.6025 24.5162 47.9375 22.6081 48.9582C20.7 49.9788 19.2 51.6235 18.3587 53.6172C17.5174 55.6109 17.3858 57.8329 17.9859 59.912C18.586 61.991 19.8815 63.8012 21.6558 65.0399C18.6404 70.5075 16.339 76.3394 14.8081 82.3928C13.5249 90.1322 14.8081 98.3428 21.4963 102.986C37.0838 113.793 54.0089 96.2874 71.8511 91.8903C78.3181 90.2953 85.4159 90.5527 91.1108 87.2539C93.1682 86.0821 94.9425 84.4717 96.3076 82.5371C97.6727 80.6025 98.5953 78.3911 99.0096 76.0599C99.3886 73.8385 99.3172 71.5637 98.7997 69.3705C98.2822 67.1772 97.3292 65.1104 95.9973 63.2927C97.4184 61.5943 98.1961 59.4498 98.194 57.2353L98.1976 57.2244ZM67.425 57.2752V57.2425C67.4277 55.6169 67.0099 54.0181 66.2121 52.6016C65.4143 51.1852 64.2637 49.9991 62.872 49.1588L73.1815 28.2752L83.5128 49.3509C82.2167 50.2122 81.154 51.381 80.4196 52.7529C79.6853 54.1249 79.302 55.6574 79.3042 57.2135C79.3042 57.2824 79.3042 57.3513 79.3042 57.4202L67.425 57.2752Z" fill="#C63D14"/>
<path d="M100.507 57.2243C100.503 54.4851 99.5443 51.833 97.7954 49.7249C96.0465 47.6167 93.6172 46.1845 90.9259 45.675L103.954 7.25H42.3726L55.4226 45.7511C53.1444 46.2604 51.0695 47.4368 49.4627 49.1302C47.8559 50.8237 46.79 52.9575 46.401 55.2593C46.0121 57.5612 46.3177 59.9267 47.2788 62.0541C48.24 64.1815 49.8132 65.9744 51.7976 67.2039C50.1583 69.6393 48.2518 71.8839 46.1136 73.8956C42.8039 77.0622 38.9146 79.5607 34.6586 81.2544C32.6613 80.095 31.1473 78.2563 30.3927 76.0736C29.6381 73.891 29.6932 71.5098 30.5479 69.3644L30.6929 69.0273L30.9611 68.3929C33.3771 67.5552 35.4544 65.9532 36.8783 63.8292C38.3023 61.7053 38.9954 59.1752 38.8526 56.6221C38.7099 54.069 37.7391 51.6319 36.0872 49.68C34.4354 47.728 32.1925 46.3675 29.6982 45.8044C27.2038 45.2413 24.594 45.5063 22.2638 46.5593C19.9336 47.6124 18.0099 49.396 16.7842 51.6402C15.5585 53.8844 15.0974 56.4668 15.4708 58.9965C15.8442 61.5262 17.0318 63.8653 18.8536 65.6596C18.4621 66.497 18.0489 67.3453 17.6247 68.2189C15.2744 72.5403 13.5649 77.1805 12.5497 81.9939C10.8641 92.1439 13.5829 100.275 20.2021 104.86C23.7555 107.401 28.0173 108.762 32.3857 108.75C40.1142 108.75 47.9334 104.868 55.5857 101.069C60.9324 98.1609 66.5732 95.8302 72.413 94.1159C74.5046 93.6011 76.6579 93.2894 78.938 92.9595C83.5832 92.5884 88.1129 91.323 92.278 89.233C94.6268 87.8913 96.6519 86.0496 98.2099 83.8383C99.7678 81.627 100.821 79.1001 101.293 76.4368C102.064 71.9118 101.174 67.261 98.7885 63.3396C99.917 61.4983 100.513 59.3802 100.51 57.2206L100.507 57.2243ZM95.8921 57.2243C95.8921 58.6367 95.4733 60.0173 94.6886 61.1917C93.9039 62.3661 92.7886 63.2814 91.4837 63.8219C90.1788 64.3624 88.743 64.5038 87.3577 64.2283C85.9724 63.9527 84.7 63.2726 83.7012 62.2739C82.7025 61.2752 82.0224 60.0027 81.7468 58.6174C81.4713 57.2322 81.6127 55.7963 82.1532 54.4914C82.6937 53.1865 83.609 52.0712 84.7834 51.2865C85.9578 50.5018 87.3385 50.083 88.7509 50.083C90.6443 50.0849 92.4595 50.8379 93.7984 52.1767C95.1372 53.5156 95.8902 55.3309 95.8921 57.2243ZM97.5125 11.8646L86.0067 45.7946C85.514 45.9138 85.0297 46.0652 84.5567 46.2478L73.1924 23.0478L61.7917 46.11C61.2954 45.938 60.7879 45.8 60.2729 45.6968L48.807 11.8646H97.5125ZM57.9746 50.083C59.387 50.083 60.7677 50.5018 61.9421 51.2865C63.1165 52.0712 64.0318 53.1865 64.5723 54.4914C65.1128 55.7963 65.2542 57.2322 64.9787 58.6174C64.7031 60.0027 64.023 61.2752 63.0242 62.2739C62.0255 63.2726 60.7531 63.9527 59.3678 64.2283C57.9825 64.5038 56.5467 64.3624 55.2418 63.8219C53.9369 63.2814 52.8216 62.3661 52.0369 61.1917C51.2522 60.0173 50.8334 58.6367 50.8334 57.2243C50.8353 55.3309 51.5883 53.5156 52.9271 52.1767C54.2659 50.8379 56.0812 50.0849 57.9746 50.083ZM27.0824 50.1519C28.4954 50.1526 29.8764 50.5725 31.0507 51.3584C32.225 52.1444 33.1397 53.261 33.6792 54.567C34.2186 55.873 34.3584 57.3097 34.081 58.6952C33.8035 60.0807 33.1213 61.3528 32.1206 62.3504C31.12 63.3481 29.8458 64.0264 28.4595 64.2996C27.0731 64.5728 25.6368 64.4286 24.3325 63.8852C23.0281 63.3418 21.9143 62.4237 21.1319 61.247C20.3496 60.0703 19.9339 58.688 19.9375 57.275C19.9394 55.3816 20.6924 53.5663 22.0312 52.2275C23.3701 50.8887 25.1854 50.1357 27.0787 50.1338L27.0824 50.1519ZM96.744 75.6501C96.3857 77.6483 95.5924 79.5433 94.4203 81.2009C93.2483 82.8584 91.7261 84.238 89.9616 85.2419C86.3007 87.0194 82.3365 88.0882 78.2782 88.392C75.9872 88.7219 73.6201 89.0626 71.3037 89.6354C65.1374 91.421 59.182 93.8675 53.5412 96.9325C42.0717 102.627 32.1537 107.547 22.8302 101.076C15.9899 96.3344 16.3052 87.5619 17.1027 82.7551C18.0412 78.3808 19.6065 74.1649 21.75 70.238C22.0835 69.5529 22.4097 68.8786 22.7287 68.2116C23.7025 68.6009 24.7243 68.857 25.7665 68.9729C24.8439 72.2317 25.1017 75.7115 26.4944 78.7988C27.8872 81.886 30.3254 84.3823 33.379 85.8473L34.2671 86.304L35.206 85.9705C40.443 84.0802 45.2274 81.117 49.2529 77.2705C51.9118 74.7692 54.2476 71.9452 56.2056 68.8641C58.7109 69.2452 61.2723 68.806 63.5076 67.612C65.7428 66.4181 67.5321 64.5334 68.6085 62.2392C69.6848 59.9451 69.9906 57.3643 69.48 54.8822C68.9695 52.4 67.6701 50.1494 65.7756 48.4663L73.1634 33.5276L80.6273 48.7526C78.5036 50.7993 77.2277 53.57 77.0531 56.5141C76.8784 59.4583 77.8179 62.3604 79.6847 64.6437C81.5516 66.927 84.2091 68.4244 87.1293 68.8383C90.0495 69.2522 93.0184 68.5523 95.4463 66.8776C96.7924 69.5946 97.2429 72.6683 96.7331 75.6574L96.744 75.6501Z" fill="white"/>
</svg>
