<svg width="94" height="94" viewBox="0 0 94 94" fill="none" xmlns="http://www.w3.org/2000/svg">
<g clip-path="url(#clip0_4_139)">
<path d="M94 86.8008V7.19929C94 3.93379 91.8252 1.17782 88.8457 0.296387L85.462 2.32099L47.9118 42.358L46.7345 46.0377L46.0467 49.5697L57.7562 93.3311L59.5679 94H86.8008C90.7768 94 94 90.7769 94 86.8008Z" fill="#EA6618"/>
<path d="M0 7.19921V86.8007C0 89.2623 1.23617 91.4343 3.12077 92.7325L5.42974 91.6269L45.1763 49.0722L46.7345 46.0376L46.7927 43.104L35.9753 1.94789L34.3372 0H7.19921C3.22323 0 0 3.22323 0 7.19921Z" fill="#D65813"/>
<path d="M46.7345 46.0376L88.8456 0.296423C88.1972 0.104569 87.5113 0 86.8008 0H34.3373L46.7345 46.0376Z" fill="#E05E11"/>
<path d="M7.19925 94H59.5679L46.7345 46.0376L3.12082 92.7326C4.28028 93.5313 5.68481 94 7.19925 94Z" fill="#DE5C16"/>
<path d="M34.8527 35.628H40.0761C42.1571 43.4809 44.5258 50.3717 47.1684 56.5891C50.1617 49.594 52.3558 42.6985 54.213 35.628H59.1486C56.9381 44.4134 53.3223 53.2677 49.1863 62.4069H44.8205C40.8476 53.7463 37.4653 44.8419 34.8527 35.628ZM17.6243 22.022H29.2387V71.8263H17.5731V67.9871H24.7226V25.7588H17.6243V22.022ZM76.4362 25.7589H69.3379V67.9871H76.4873V71.8263H64.8219V22.022H76.4362V25.7589Z" fill="white"/>
</g>
<defs>
<clipPath id="clip0_4_139">
<rect width="94" height="94" fill="white"/>
</clipPath>
</defs>
</svg>
