<svg width="103" height="103" viewBox="0 0 103 103" fill="none" xmlns="http://www.w3.org/2000/svg">
<path d="M73.6167 36.3974L73.5806 36.382C73.56 36.3742 73.5394 36.3665 73.5214 36.3485C73.4919 36.3167 73.47 36.2786 73.4575 36.2371C73.445 36.1956 73.4422 36.1518 73.4493 36.109L75.4398 23.9396L84.7741 33.2765L75.0664 37.4068C75.0394 37.4177 75.0105 37.4229 74.9814 37.4223H74.9428C74.9299 37.4145 74.9171 37.4042 74.8913 37.3785C74.53 36.9762 74.098 36.6437 73.6167 36.3974ZM87.156 35.6558L97.1367 45.6365C99.2096 47.712 100.247 48.7471 100.626 49.9471C100.682 50.1247 100.729 50.3024 100.765 50.4852L76.9127 40.3835C76.8999 40.3782 76.887 40.3731 76.8741 40.368C76.7788 40.3294 76.6681 40.2857 76.6681 40.1878C76.6681 40.09 76.7813 40.0436 76.8766 40.005L76.9075 39.9921L87.156 35.6558ZM100.358 53.6885C99.843 54.6567 98.8388 55.661 97.1393 57.3631L85.8866 68.6132L71.3326 65.5825L71.2554 65.567C71.1267 65.5464 70.9902 65.5232 70.9902 65.4074C70.9349 64.807 70.7566 64.2244 70.4665 63.6959C70.1763 63.1674 69.7804 62.7043 69.3036 62.3354C69.2443 62.2762 69.2598 62.1835 69.2778 62.0985C69.2778 62.0856 69.2778 62.0727 69.283 62.0624L72.0202 45.258L72.0305 45.2013C72.0459 45.0726 72.0691 44.9232 72.185 44.9232C72.7716 44.8503 73.3378 44.6613 73.8506 44.3673C74.3634 44.0733 74.8126 43.6802 75.172 43.2108C75.1952 43.1851 75.2106 43.1568 75.2415 43.1413C75.3239 43.1027 75.4218 43.1413 75.5067 43.1774L100.358 53.6885ZM83.2987 71.2011L64.7947 89.7051L67.962 70.2381L67.9671 70.2123C67.9697 70.1866 67.9749 70.1608 67.9826 70.1376C68.0083 70.0758 68.0753 70.0501 68.1397 70.0243L68.1706 70.0115C68.864 69.7156 69.4774 69.2593 69.9602 68.6802C70.022 68.6081 70.0967 68.5386 70.1919 68.5257C70.2167 68.5216 70.2419 68.5216 70.2666 68.5257L83.2961 71.2037L83.2987 71.2011ZM60.8782 93.6216L58.7924 95.7074L35.7333 62.3817C35.7249 62.3695 35.7164 62.3575 35.7075 62.3457C35.6715 62.2968 35.6329 62.2478 35.6406 62.1912C35.6432 62.15 35.6689 62.1139 35.6972 62.083L35.723 62.0496C35.7925 61.9466 35.8517 61.8436 35.9161 61.7328L35.9676 61.6427L35.9753 61.635C36.0114 61.5732 36.0449 61.514 36.1067 61.4805C36.1607 61.4547 36.2354 61.465 36.2946 61.4779L61.8412 66.7464C61.9126 66.7575 61.98 66.7867 62.0369 66.8313C62.0704 66.8648 62.0781 66.9009 62.0858 66.9421C62.264 67.6163 62.5957 68.2402 63.0549 68.765C63.5141 69.2899 64.0884 69.7015 64.7329 69.9677C64.805 70.0037 64.7741 70.0836 64.7407 70.1685C64.724 70.2058 64.711 70.2446 64.702 70.2844C64.3802 72.2414 61.6198 89.0768 60.8782 93.6216ZM56.5213 97.976C54.984 99.4978 54.0776 100.304 53.0527 100.628C52.0422 100.948 50.9578 100.948 49.9473 100.628C48.7473 100.247 47.7096 99.212 45.6367 97.1365L22.4798 73.9795L28.5284 64.5988C28.5568 64.5525 28.5851 64.5113 28.6314 64.4778C28.6958 64.4314 28.7885 64.452 28.8658 64.4778C30.2541 64.8966 31.7447 64.8211 33.0836 64.2641C33.1531 64.2383 33.2227 64.2203 33.2767 64.2692C33.3038 64.2939 33.328 64.3215 33.3488 64.3516L56.5213 97.976ZM20.2472 71.747L14.935 66.4348L25.4256 61.9594C25.4524 61.9477 25.4813 61.9416 25.5105 61.9414C25.5981 61.9414 25.6496 62.029 25.6959 62.1088C25.8014 62.271 25.913 62.429 26.0307 62.5826L26.0642 62.6238C26.0951 62.6676 26.0745 62.7113 26.0436 62.7525L20.2472 71.747ZM12.584 64.0838L5.86328 57.3631C4.71998 56.2198 3.89083 55.3906 3.31403 54.6773L23.7492 58.9158C23.7749 58.9205 23.8007 58.9248 23.8265 58.9287C23.9527 58.9493 24.0917 58.9724 24.0917 59.0909C24.0917 59.2196 23.9398 59.2789 23.811 59.3278L23.7518 59.3535L12.584 64.0838ZM2.13983 51.2217C2.16312 50.7887 2.24099 50.3605 2.37158 49.9471C2.75268 48.7471 3.78783 47.712 5.86328 45.6365L14.4638 37.036C18.4237 42.7831 22.3944 48.5228 26.3757 54.255C26.4453 54.3477 26.5225 54.4507 26.4427 54.528C26.0667 54.9426 25.6908 55.3958 25.4256 55.8876C25.3968 55.9508 25.3525 56.0057 25.2968 56.0472C25.2633 56.0678 25.2273 56.0601 25.1887 56.0524H25.1835L2.13983 51.2217ZM16.7658 34.734L28.3302 23.1696C29.4168 23.646 33.372 25.3172 36.9101 26.8107C39.5881 27.9437 42.0292 28.9737 42.7965 29.3084C42.8738 29.3393 42.9433 29.3702 42.9768 29.4475C42.9974 29.4938 42.9871 29.5531 42.9768 29.602C42.7937 30.4367 42.8209 31.3039 43.056 32.1255C43.2911 32.9471 43.7266 33.6975 44.3235 34.3091C44.4007 34.3863 44.3235 34.4971 44.2565 34.5923L44.2205 34.6464L32.4785 52.8336C32.4476 52.8851 32.4193 52.9289 32.3678 52.9624C32.306 53.001 32.2184 52.983 32.1463 52.965C31.6896 52.8453 31.2201 52.7813 30.7481 52.7744C30.3258 52.7744 29.8674 52.8517 29.4039 52.9366C29.3524 52.9444 29.3035 52.9547 29.2623 52.9238C29.2168 52.8866 29.1777 52.8422 29.1464 52.7924L16.7658 34.734ZM30.6657 20.8341L45.6367 5.86305C47.7096 3.79018 48.7473 2.75245 49.9473 2.37393C50.9578 2.05439 52.0422 2.05439 53.0527 2.37393C54.2527 2.75245 55.2904 3.79018 57.3633 5.86305L60.6078 9.10755L49.9602 25.5979C49.9338 25.6459 49.8979 25.6879 49.8546 25.7215C49.7902 25.7652 49.7001 25.7472 49.6228 25.7215C48.7833 25.4667 47.8944 25.4203 47.033 25.5863C46.1715 25.7523 45.3635 26.1257 44.6788 26.6742C44.6093 26.7463 44.5063 26.7051 44.4188 26.6665C43.0283 26.0613 32.2133 21.4907 30.6657 20.8341ZM62.8686 11.3684L72.7 21.1998L70.331 35.8721V35.9107C70.3289 35.9442 70.3219 35.9771 70.3104 36.0086C70.2846 36.0601 70.2331 36.0704 70.1816 36.0858C69.6751 36.2393 69.1981 36.4769 68.7705 36.7888C68.7522 36.8019 68.7349 36.8165 68.719 36.8326C68.6907 36.8635 68.6624 36.8918 68.616 36.897C68.5783 36.8981 68.5407 36.892 68.5053 36.8789L53.524 30.5135L53.4956 30.5007C53.4004 30.462 53.2871 30.4157 53.2871 30.3178C53.199 29.483 52.9263 28.6782 52.4888 27.9617C52.4167 27.8433 52.3369 27.7197 52.3987 27.5986L62.8686 11.3684ZM52.7437 33.5289L66.7878 39.4771C66.865 39.5132 66.95 39.5466 66.9835 39.6264C66.9969 39.6745 66.9969 39.7252 66.9835 39.7732C66.9423 39.9792 66.9062 40.2136 66.9062 40.4505V40.8444C66.9062 40.9423 66.8058 40.9835 66.7131 41.0221L66.6848 41.0324C64.46 41.9826 35.45 54.3529 35.4063 54.3529C35.3625 54.3529 35.3161 54.3529 35.2724 54.3091C35.1951 54.2319 35.2724 54.1237 35.3419 54.0259C35.3542 54.0089 35.3662 53.9917 35.3779 53.9744L46.9191 36.1039L46.9397 36.073C47.0066 35.9648 47.0839 35.8438 47.2075 35.8438L47.3234 35.8618C47.586 35.8979 47.8178 35.9313 48.0521 35.9313C49.8031 35.9313 51.4253 35.079 52.4038 33.6216C52.4271 33.5826 52.4567 33.5478 52.4914 33.5186C52.5609 33.4671 52.6639 33.4928 52.7437 33.5289ZM36.6603 57.1802L68.2813 43.695C68.2813 43.695 68.3276 43.695 68.3714 43.7387C68.5439 43.9113 68.6907 44.0271 68.8323 44.1353L68.9019 44.1791C68.9662 44.2151 69.0306 44.2563 69.0358 44.3233C69.0358 44.349 69.0358 44.3645 69.0306 44.3876L66.3217 61.0273L66.3114 61.0942C66.2934 61.223 66.2754 61.3698 66.1543 61.3698C65.4321 61.4185 64.7327 61.6426 64.1166 62.0226C63.5006 62.4027 62.9865 62.9272 62.6189 63.5508L62.606 63.5714C62.5699 63.6306 62.5365 63.6873 62.4772 63.7182C62.4232 63.7439 62.3536 63.7336 62.297 63.7207L37.08 58.5192C37.0543 58.5141 36.6886 57.1828 36.6603 57.1802Z" fill="url(#paint0_radial_4_201)"/>
<defs>
<radialGradient id="paint0_radial_4_201" cx="0" cy="0" r="1" gradientUnits="userSpaceOnUse" gradientTransform="translate(-1.17152 50.1082) rotate(90) scale(9862.49 11386.6)">
<stop stop-color="#20C6B7"/>
<stop offset="1" stop-color="#4D9ABF"/>
</radialGradient>
</defs>
</svg>
