<svg width="129" height="129" viewBox="0 0 129 129" fill="none" xmlns="http://www.w3.org/2000/svg">
<g clip-path="url(#clip0_4_24)">
<path d="M64.502 73.4352C69.4869 73.4352 73.528 69.3942 73.528 64.4093C73.528 59.4244 69.4869 55.3833 64.502 55.3833C59.5171 55.3833 55.4761 59.4244 55.4761 64.4093C55.4761 69.3942 59.5171 73.4352 64.502 73.4352Z" fill="#00D8FF"/>
<path fill-rule="evenodd" clip-rule="evenodd" d="M65.1652 45.3838C80.5545 45.4886 97.3446 46.6113 108.87 56.889C109.209 57.1913 109.535 57.5057 109.854 57.8303C112.573 60.6017 113.994 65.0764 111.799 68.759C107.296 76.3196 97.2257 79.6171 87.4761 81.6469C72.8951 84.6824 57.6489 84.7066 43.0739 82.0339C34.6869 80.4939 26.1104 77.795 20.1502 72.1493C17.8302 69.9522 15.8469 67.0618 16.1573 63.8449C16.6612 58.6405 21.6539 55.3006 25.8564 53.0391C37.5289 46.7584 51.7512 45.3535 65.1652 45.3838ZM64.0485 47.7481C49.4876 47.8469 33.7275 48.7761 22.4843 58.0862C22.0913 58.4108 21.7123 58.7514 21.3475 59.1082C21.1117 59.3379 20.8839 59.5778 20.6642 59.8237C18.6909 62.0409 18.0116 65.6025 19.8741 68.2651C21.7486 70.9439 24.5947 72.8769 27.5254 74.4531C38.4864 80.3468 51.4388 81.3929 64.0667 81.4373C76.8518 81.4836 90.036 80.3186 101.33 74.4793C105.828 72.1513 110.892 68.7328 110.712 64.3306C110.547 60.2913 106.608 57.796 103.66 56.0142C102.861 55.5324 102.041 55.087 101.209 54.6677C89.9977 49.0502 76.8598 47.7199 64.0485 47.7481Z" fill="#00D8FF"/>
<path fill-rule="evenodd" clip-rule="evenodd" d="M84.8881 21.5732C90.5177 21.7163 93.4343 28.4848 93.8193 33.4836C93.8959 34.4773 93.9241 35.475 93.912 36.4727C93.8999 37.5531 93.8415 38.6335 93.7467 39.7098C92.5595 53.0371 86.4743 65.7295 79.3088 77.4504C72.3005 88.9153 63.7542 100.348 52.1281 105.661C48.2843 107.419 43.7129 108.503 40.3105 106.542C35.6463 103.855 35.1364 97.5704 35.2231 92.8034C35.2452 91.6323 35.3218 90.4612 35.4428 89.2942C37.2346 72.0404 45.9804 55.6958 56.9253 41.6146C63.3108 33.3989 70.9077 25.2497 80.371 22.2989C81.8606 21.8333 83.0438 21.5511 84.8881 21.5732ZM84.618 23.9356C78.0087 24.0404 72.0747 28.9383 66.82 34.0278C53.0049 47.4055 42.824 65.1974 38.7282 83.856C38.4118 85.3012 38.1457 86.7565 37.9502 88.2219C37.799 89.3567 37.6882 90.4975 37.6297 91.6424C37.5834 92.5535 37.5672 93.4665 37.5954 94.3796C37.6156 95.0932 37.662 95.8067 37.7406 96.5162C37.799 97.0584 37.8776 97.5986 37.9764 98.1347C38.051 98.5318 38.1376 98.9269 38.2384 99.3199C38.3211 99.6384 38.4138 99.9548 38.5186 100.269C39.343 102.755 41.4675 105.129 44.3196 105.208C50.9731 105.389 57.2377 100.537 62.6537 95.2645C72.1614 86.0107 79.2463 74.3826 84.7812 62.1599C89.2478 52.2914 93.3335 41.5642 91.0518 30.702C90.9652 30.2908 90.8644 29.8837 90.7495 29.4805C90.6548 29.152 90.5479 28.8275 90.431 28.507C89.5442 26.0903 87.458 23.9295 84.618 23.9356Z" fill="#00D8FF"/>
<path fill-rule="evenodd" clip-rule="evenodd" d="M44.5635 21.662C51.7472 21.8011 58.1992 26.6769 63.9276 32.1372C74.3806 42.1005 82.0904 54.7747 87.9398 68.1141C92.4709 78.4482 96.6392 90.0482 92.9345 100.953C91.7674 104.389 88.8145 107.534 84.878 107.614C77.6601 107.759 70.9702 102.511 65.1652 96.861C50.6023 82.6831 39.7905 63.966 36.0858 44.1161C35.8197 42.6971 35.6081 41.266 35.4629 39.8289C35.344 38.6558 35.2694 37.4766 35.2493 36.2975C35.2332 35.3461 35.2533 34.3947 35.3198 33.4474C35.3642 32.8145 35.4287 32.1856 35.5154 31.5588C35.598 30.9702 35.7028 30.3837 35.8338 29.8032C35.9205 29.4182 36.0172 29.0372 36.1281 28.6583C37.2145 24.9435 40.0404 21.6338 44.5635 21.662ZM44.2914 24.0264C40.0848 24.1191 38.1598 29.0795 37.7728 32.5605C37.6942 33.2741 37.6459 33.9936 37.6237 34.7132C37.5955 35.6323 37.6076 36.5535 37.6539 37.4726C38.3151 50.7737 44.2611 63.6334 51.4368 75.4087C58.1931 86.4946 66.3524 97.5362 77.5754 103.212C80.8165 104.851 84.7551 106.139 87.5548 104.591C91.066 102.648 91.4973 98.018 91.6848 94.5672C91.7352 93.6279 91.7412 92.6846 91.711 91.7433C91.6747 90.5622 91.582 89.383 91.4429 88.2099C90.1489 77.251 85.2952 66.8806 79.72 57.0806C72.7822 44.8901 64.2824 32.7399 52.2531 26.3927C49.7618 25.0785 47.0649 24.0042 44.2914 24.0264Z" fill="#00D8FF"/>
</g>
<defs>
<clipPath id="clip0_4_24">
<rect width="129" height="129" fill="white"/>
</clipPath>
</defs>
</svg>
