<svg width="223" height="223" viewBox="0 0 223 223" fill="none" xmlns="http://www.w3.org/2000/svg">
<g clip-path="url(#clip0_4_342)">
<path d="M111.263 130.345C121.389 130.345 129.597 122.137 129.597 112.011C129.597 101.886 121.389 93.6779 111.263 93.6779C101.138 93.6779 92.9298 101.886 92.9298 112.011C92.9298 122.137 101.138 130.345 111.263 130.345Z" fill="#FEDA00"/>
<path fill-rule="evenodd" clip-rule="evenodd" d="M112.611 73.3668C143.869 73.5797 177.974 75.8601 201.384 96.7363C202.072 97.3504 202.735 97.9891 203.382 98.6482C208.905 104.278 211.791 113.367 207.333 120.847C198.187 136.204 177.732 142.902 157.929 147.025C128.312 153.191 97.3434 153.24 67.7386 147.811C50.7028 144.683 33.2821 139.201 21.1757 127.733C16.4633 123.27 12.4347 117.399 13.0652 110.865C14.0887 100.294 24.23 93.51 32.7663 88.9164C56.4755 76.159 85.3639 73.3054 112.611 73.3668ZM110.342 78.1692C80.7662 78.3699 48.7539 80.2573 25.9167 99.1682C25.1184 99.8273 24.3487 100.519 23.6076 101.244C23.1286 101.711 22.666 102.198 22.2197 102.697C18.2115 107.201 16.8318 114.435 20.6148 119.844C24.4224 125.285 30.2033 129.211 36.1562 132.413C58.4203 144.384 84.7293 146.509 110.379 146.599C136.348 146.693 163.128 144.327 186.068 132.466C195.206 127.737 205.491 120.794 205.126 111.852C204.79 103.647 196.79 98.5786 190.801 94.9594C189.179 93.9809 187.513 93.0761 185.822 92.2245C163.051 80.8141 136.365 78.1119 110.342 78.1692Z" fill="#FEDA00"/>
<path fill-rule="evenodd" clip-rule="evenodd" d="M152.672 25.0025C164.107 25.2932 170.031 39.0413 170.813 49.1948C170.969 51.2133 171.026 53.2399 171.001 55.2665C170.977 57.4609 170.858 59.6554 170.666 61.8417C168.254 88.9123 155.894 114.693 141.339 138.501C127.104 161.788 109.745 185.01 86.1295 195.802C78.322 199.373 69.0364 201.575 62.1255 197.592C52.6516 192.134 51.6158 179.369 51.7918 169.686C51.8369 167.307 51.9924 164.928 52.2381 162.558C55.8778 127.512 73.6423 94.3124 95.8736 65.7107C108.844 49.0229 124.275 32.4702 143.497 26.4764C146.522 25.5306 148.926 24.9574 152.672 25.0025ZM152.123 29.8008C138.698 30.0137 126.645 39.9625 115.972 50.3003C87.9105 77.4732 67.2309 113.612 58.9116 151.512C58.2688 154.447 57.7284 157.403 57.3312 160.38C57.0242 162.685 56.799 165.002 56.6803 167.328C56.5861 169.178 56.5533 171.033 56.6107 172.887C56.6516 174.337 56.7458 175.786 56.9054 177.227C57.0242 178.329 57.1838 179.426 57.3844 180.515C57.5359 181.321 57.712 182.124 57.9167 182.922C58.0846 183.569 58.2729 184.212 58.4858 184.851C60.1603 189.899 64.4755 194.722 70.2688 194.881C83.7836 195.25 96.5082 185.395 107.509 174.685C126.821 155.889 141.212 132.269 152.455 107.442C161.528 87.3974 169.826 65.6083 165.192 43.5449C165.016 42.7097 164.811 41.8827 164.578 41.0638C164.385 40.3965 164.168 39.7373 163.931 39.0864C162.129 34.1775 157.892 29.7885 152.123 29.8008Z" fill="#FEDA00"/>
<path fill-rule="evenodd" clip-rule="evenodd" d="M70.7642 25.1826C85.3558 25.4651 98.4612 35.3689 110.097 46.4599C131.329 66.6974 146.989 92.4414 158.871 119.537C168.074 140.527 176.541 164.089 169.016 186.239C166.645 193.219 160.647 199.606 152.651 199.77C137.99 200.064 124.402 189.403 112.611 177.927C83.0303 149.129 61.0693 111.111 53.5442 70.7915C53.0038 67.9092 52.5739 65.0024 52.2791 62.0832C52.0376 59.7004 51.8861 57.3054 51.8451 54.9103C51.8124 52.9778 51.8533 51.0454 51.9884 49.1211C52.0785 47.8356 52.2095 46.5582 52.3856 45.2849C52.5534 44.0894 52.7663 42.898 53.0324 41.7189C53.2085 40.9369 53.405 40.1631 53.6302 39.3934C55.8369 31.8479 61.5769 25.1253 70.7642 25.1826ZM70.2115 29.9851C61.667 30.1734 57.7571 40.2491 56.971 47.3197C56.8114 48.769 56.7131 50.2307 56.6681 51.6923C56.6107 53.5592 56.6353 55.4302 56.7295 57.2972C58.0724 84.3145 70.1501 110.435 84.7253 134.353C98.4489 156.871 115.022 179.299 137.818 190.828C144.402 194.157 152.402 196.773 158.089 193.628C165.221 189.682 166.097 180.277 166.477 173.268C166.58 171.36 166.592 169.444 166.531 167.532C166.457 165.133 166.269 162.738 165.986 160.355C163.358 138.095 153.499 117.031 142.175 97.1251C128.082 72.3637 110.817 47.6841 86.3834 34.7916C81.3231 32.1222 75.8451 29.94 70.2115 29.9851Z" fill="#FEDA00"/>
</g>
<defs>
<clipPath id="clip0_4_342">
<rect width="223" height="223" fill="white"/>
</clipPath>
</defs>
</svg>
