<svg width="118" height="118" viewBox="0 0 118 118" fill="none" xmlns="http://www.w3.org/2000/svg">
<path d="M80.3388 79.4878C84.4213 79.0722 87.5184 75.6122 87.3775 71.4597C87.237 67.308 83.7173 63.9863 79.494 63.9863H79.2127C74.8481 64.1246 71.47 67.7232 71.6109 72.0136C71.7518 74.0897 72.5962 75.8888 73.8632 77.1344C69.0768 86.4078 61.7564 93.1894 50.7761 98.8641C43.3148 102.739 35.5726 104.124 27.8301 103.155C21.4951 102.324 16.568 99.5566 13.4705 94.9886C8.96593 88.2069 8.54375 80.8714 12.3448 73.5362C15.0196 68.2767 19.2424 64.4011 21.9173 62.4633C21.3542 60.6642 20.5094 57.6195 20.0872 55.4051C-0.325257 69.9375 1.78656 89.5912 7.98071 98.8641C12.6261 105.784 22.0581 110.075 32.4755 110.075C35.2908 110.075 38.1063 109.798 40.922 109.107C58.9414 105.646 72.5966 95.1272 80.3388 79.4878ZM105.116 62.3254C94.4166 50.0073 78.6496 43.2257 60.6302 43.2257H58.3783C57.1113 40.7344 54.4364 39.0732 51.4801 39.0732H51.1984C46.8346 39.2118 43.4564 42.8101 43.5969 47.1009C43.7378 51.253 47.2568 54.5747 51.4801 54.5747H51.7614C54.8586 54.4364 57.5335 52.4986 58.6596 49.8687H61.1933C71.8926 49.8687 82.0281 52.9135 91.179 58.8651C98.2173 63.4324 103.285 69.3841 106.101 76.5809C108.494 82.3939 108.353 88.0686 105.819 92.9129C101.878 100.248 95.2614 104.262 86.5331 104.262C80.9019 104.262 75.5528 102.601 72.737 101.355C71.1887 102.739 68.3729 104.954 66.4019 106.338C72.4557 109.106 78.6496 110.629 84.5621 110.629C98.0764 110.629 108.072 103.293 111.873 95.9576C115.955 87.93 115.673 74.0897 105.116 62.3254ZM33.6016 81.8401C33.7425 85.9922 37.2618 89.3135 41.4851 89.3135H41.7668C46.1306 89.1756 49.5091 85.577 49.3682 81.2866C49.2278 77.1341 45.708 73.8127 41.4851 73.8127H41.2038C40.922 73.8127 40.4994 73.8127 40.2185 73.9507C34.4464 64.5394 32.0533 54.2978 32.8981 43.2253C33.4607 34.9209 36.2765 27.7237 41.2038 21.7722C45.2858 16.6511 53.1693 14.1599 58.5191 14.0218C73.441 13.7448 79.7754 32.0142 80.198 39.3497C82.0281 39.7649 85.1252 40.734 87.237 41.4262C85.5474 19.0048 71.47 7.37866 57.9561 7.37866C45.2858 7.37866 33.6016 16.375 28.9558 29.6618C22.4804 47.3774 26.7035 64.4011 34.5869 77.8266C33.8834 78.7953 33.4607 80.3175 33.6016 81.8401Z" fill="#764ABC"/>
</svg>
