<svg width="171" height="182" viewBox="0 0 171 182" fill="none" xmlns="http://www.w3.org/2000/svg">
<path d="M8.51875 181.733H73.8292C75.3966 181.733 76.6688 180.461 76.6688 178.894C76.6688 177.326 75.3966 176.054 73.8292 176.054H8.51875C6.9513 176.054 5.67917 174.782 5.67917 173.215V8.51875C5.67917 6.9513 6.9513 5.67917 8.51875 5.67917H122.102C123.67 5.67917 124.942 6.9513 124.942 8.51875V28.3958C124.942 29.9633 126.214 31.2354 127.781 31.2354C129.349 31.2354 130.621 29.9633 130.621 28.3958V8.51875C130.621 3.82208 126.799 0 122.102 0H8.51875C3.82208 0 0 3.82208 0 8.51875V173.215C0 177.911 3.82208 181.733 8.51875 181.733Z" fill="#FEDA00"/>
<path d="M56.7917 22.7167C55.2242 22.7167 53.9521 23.9888 53.9521 25.5563C53.9521 27.1237 55.2242 28.3958 56.7917 28.3958H73.8292C75.3966 28.3958 76.6688 27.1237 76.6688 25.5563C76.6688 23.9888 75.3966 22.7167 73.8292 22.7167H56.7917Z" fill="#FEDA00"/>
<path d="M85.1875 48.2729V173.215C85.1875 177.911 89.0096 181.733 93.7063 181.733H161.856C166.553 181.733 170.375 177.911 170.375 173.215V48.2729C170.375 43.5762 166.553 39.7542 161.856 39.7542H93.7063C89.0096 39.7542 85.1875 43.5762 85.1875 48.2729ZM164.696 48.2729V173.215C164.696 174.782 163.424 176.054 161.856 176.054H93.7063C92.1388 176.054 90.8667 174.782 90.8667 173.215V48.2729C90.8667 46.7055 92.1388 45.4333 93.7063 45.4333H161.856C163.424 45.4333 164.696 46.7055 164.696 48.2729Z" fill="#FEDA00"/>
<path d="M126.651 145.671C121.364 145.671 117.065 149.97 117.065 155.257C117.065 160.545 121.364 164.844 126.651 164.844C131.938 164.844 136.237 160.545 136.237 155.257C136.237 149.97 131.933 145.671 126.651 145.671ZM126.651 159.164C124.499 159.164 122.744 157.41 122.744 155.257C122.744 153.105 124.499 151.35 126.651 151.35C128.803 151.35 130.558 153.105 130.558 155.257C130.558 157.41 128.803 159.164 126.651 159.164Z" fill="#FEDA00"/>
<path d="M119.262 62.4709H136.3C137.867 62.4709 139.14 61.1988 139.14 59.6313C139.14 58.0639 137.867 56.7917 136.3 56.7917H119.262C117.695 56.7917 116.423 58.0639 116.423 59.6313C116.423 61.1988 117.695 62.4709 119.262 62.4709Z" fill="#FEDA00"/>
</svg>
