<svg width="125" height="79" viewBox="0 0 125 79" fill="none" xmlns="http://www.w3.org/2000/svg">
<path d="M31.0625 26.2449C35.2042 8.7483 45.5583 0 62.125 0C86.975 0 90.0812 19.6837 102.506 22.9643C110.79 25.1514 118.037 21.8707 124.25 13.1224C120.108 30.619 109.754 39.3673 93.1875 39.3673C68.3375 39.3673 65.2312 19.6837 52.8062 16.4031C44.5229 14.216 37.275 17.4966 31.0625 26.2449ZM0 65.6123C4.14167 48.1157 14.4958 39.3673 31.0625 39.3673C55.9125 39.3673 59.0187 59.051 71.4437 62.3316C79.7271 64.5187 86.975 61.2381 93.1875 52.4898C89.0458 69.9864 78.6917 78.7347 62.125 78.7347C37.275 78.7347 34.1688 59.051 21.7437 55.7704C13.4604 53.5833 6.2125 56.8639 0 65.6123Z" fill="#44A8B3"/>
</svg>
