<svg width="121" height="111" viewBox="0 0 121 111" fill="none" xmlns="http://www.w3.org/2000/svg">
<g clip-path="url(#clip0_19_243)" filter="url(#filter0_d_19_243)">
<path d="M88.6469 31.1676L61.7797 70.1175C61.4942 70.531 61.0824 70.8403 60.6063 70.9987C60.1297 71.1572 59.6147 71.1564 59.1387 70.9965C58.6639 70.8366 58.254 70.526 57.9709 70.1117C57.6887 69.6978 57.5495 69.2026 57.5745 68.7019L58.6501 47.1978L41.2905 43.5065C40.9199 43.4277 40.5743 43.2587 40.2843 43.0144C39.995 42.7707 39.7703 42.4591 39.6301 42.1073C39.49 41.7555 39.4387 41.3744 39.4809 40.9979C39.5236 40.6212 39.6586 40.2608 39.8738 39.949L66.7418 0.999174C67.0278 0.58579 67.4399 0.276651 67.9162 0.118218C68.3924 -0.0402144 68.9071 -0.0393812 69.3829 0.120593C69.8578 0.280255 70.2677 0.590881 70.5506 1.00534C70.8329 1.41998 70.9721 1.91473 70.947 2.4152L69.8715 23.9198L87.2306 27.611C87.6013 27.6897 87.947 27.8585 88.2373 28.1027C88.5269 28.3462 88.7518 28.6578 88.8919 29.0098C89.032 29.3618 89.083 29.743 89.0402 30.1196C88.9975 30.4963 88.8624 30.8561 88.6469 31.1676Z" fill="#FCC72B"/>
<path d="M60.511 102.796C59.7964 102.797 59.0886 102.656 58.4285 102.382C57.7683 102.108 57.1686 101.705 56.664 101.198L31.2771 75.7461C30.2613 74.7225 29.6918 73.3366 29.6937 71.8925C29.6956 70.4485 30.2687 69.0641 31.2872 68.0431C32.3057 67.0224 33.6863 66.4481 35.1264 66.4461C36.5664 66.4441 37.9486 67.0146 38.9698 68.0326L60.511 89.6278L107.437 42.5788C108.457 41.556 109.841 40.9814 111.284 40.9814C112.726 40.9815 114.11 41.5562 115.13 42.579C116.15 43.6019 116.723 44.9892 116.723 46.4358C116.723 47.8823 116.15 49.2696 115.13 50.2924L64.3566 101.198C63.8523 101.706 63.2529 102.108 62.5929 102.382C61.9329 102.656 61.2254 102.797 60.511 102.796Z" fill="#729B1B"/>
<path d="M60.489 102.796C61.2036 102.797 61.9113 102.656 62.5715 102.382C63.2317 102.108 63.8314 101.706 64.336 101.198L89.7228 75.7463C90.7385 74.7227 91.3077 73.3369 91.3055 71.8931C91.3033 70.449 90.7302 69.0648 89.7118 68.0436C88.6935 67.0225 87.313 66.4478 85.8728 66.4455C84.4326 66.444 83.0506 67.0147 82.0293 68.0328L60.489 89.628L13.5624 42.579C12.5387 41.5735 11.1606 41.0136 9.7275 41.0211C8.29443 41.0285 6.92216 41.6026 5.90881 42.6186C4.89547 43.6346 4.3229 45.0106 4.3155 46.4474C4.3081 47.8843 4.86647 49.2661 5.8693 50.2925L56.6429 101.198C57.1473 101.706 57.7467 102.108 58.4067 102.382C59.0667 102.656 59.7746 102.797 60.489 102.796Z" fill="#729B1B" fill-opacity="0.5"/>
</g>
<defs>
<filter id="filter0_d_19_243" x="0" y="0" width="121" height="111" filterUnits="userSpaceOnUse" color-interpolation-filters="sRGB">
<feFlood flood-opacity="0" result="BackgroundImageFix"/>
<feColorMatrix in="SourceAlpha" type="matrix" values="0 0 0 0 0 0 0 0 0 0 0 0 0 0 0 0 0 0 127 0" result="hardAlpha"/>
<feOffset dy="4"/>
<feGaussianBlur stdDeviation="2"/>
<feComposite in2="hardAlpha" operator="out"/>
<feColorMatrix type="matrix" values="0 0 0 0 0 0 0 0 0 0 0 0 0 0 0 0 0 0 0.25 0"/>
<feBlend mode="normal" in2="BackgroundImageFix" result="effect1_dropShadow_19_243"/>
<feBlend mode="normal" in="SourceGraphic" in2="effect1_dropShadow_19_243" result="shape"/>
</filter>
<clipPath id="clip0_19_243">
<rect width="113" height="103" fill="white" transform="translate(4)"/>
</clipPath>
</defs>
</svg>
