<svg width="176" height="174" viewBox="0 0 176 174" fill="none" xmlns="http://www.w3.org/2000/svg">
<path d="M0 84.1757V83.9316C2.20717 55.3841 12.5204 33.9715 30.4369 20.4341C48.11 6.65251 67.2597 0.00586464 88.1217 0.00586464C109.966 -0.238266 130.341 7.14077 148.509 21.9067C166.92 36.4286 176 58.0853 176 86.1367V87.8613C176 116.165 166.92 137.325 148.509 151.847C130.097 166.613 109.722 174 87.8783 174H86.8964C65.5395 173.756 45.9028 166.369 27.7428 151.603C9.57487 137.081 0.25135 114.684 0.00785469 84.1679L0 84.1757ZM82.7177 45.5401V6.65251H76.8267C75.6014 8.13304 74.6195 9.84984 73.6377 11.3304C72.6559 12.8109 71.674 14.2836 70.6922 16.0082C69.7104 17.4888 68.485 19.4575 67.7467 20.9302C66.7649 22.4107 66.0265 23.8834 65.2882 25.6081C63.8115 28.073 62.5862 30.53 61.6043 32.743C60.379 34.9559 59.3972 37.1767 58.6588 39.1455C60.1355 40.1299 61.8478 41.3584 63.8115 42.0987C66.0187 42.8389 68.2337 43.5792 70.4408 44.0675C72.8994 44.5636 75.1065 44.8077 77.0702 45.0519C79.2774 45.296 81.241 45.548 82.7177 45.548V45.5401ZM93.0309 6.66039V45.296C94.2563 45.296 95.7329 45.5401 97.2018 45.296C98.6785 45.296 100.391 45.0519 101.867 44.7999C104.569 44.3037 107.758 43.5713 110.217 42.8311C112.919 41.8467 115.37 40.6181 117.09 39.1376C114.144 32.0027 110.955 26.3405 107.758 20.9223C104.562 15.5042 100.886 10.8342 96.9583 6.89664V6.65251H93.0309V6.66039ZM66.5214 8.87331V8.62918C64.8012 9.36945 63.081 10.598 61.1173 11.3382C59.3972 12.0785 57.19 13.0629 55.4698 14.0473C52.0295 15.772 48.597 17.7408 45.1566 19.9537C41.9676 22.1666 38.7707 24.6315 36.0766 27.0886C37.0584 28.073 38.2838 29.0574 39.2656 29.7977C40.2474 30.5379 41.4728 31.5223 42.7059 32.5067C43.6878 33.0029 44.9131 33.7352 46.1463 34.7196C47.3716 35.4599 48.8483 36.4443 50.3171 37.4287C52.2808 32.995 54.2445 28.325 56.703 24.1354C59.1615 19.7017 61.8557 15.52 64.5577 11.8265C64.8012 11.3304 65.0525 10.8421 65.5395 10.346C65.783 10.1018 66.0344 9.36945 66.5214 8.87331ZM141.628 27.0807V26.8366C135.493 22.1587 130.089 18.2211 124.693 15.7641C119.297 13.307 113.893 10.8421 108.984 8.87331C112.911 12.8109 116.352 17.7329 118.559 22.4107C121.017 27.3327 123.468 32.4988 125.432 37.4208C126.413 36.9247 127.639 36.4364 129.115 35.452C130.341 34.7118 132.061 33.9715 133.538 33.2391C135.014 32.2547 136.24 31.2703 137.708 30.2859C139.185 29.0574 140.654 28.073 141.636 27.0886L141.628 27.0807ZM137.457 81.9628H165.687C165.687 72.8591 163.723 64.2437 160.039 55.3841C156.599 46.7687 151.69 39.6337 145.555 33.4832V33.2391C144.33 35.2079 142.61 36.9326 140.89 38.1611C138.926 39.3896 137.206 40.374 135.242 41.3584C134.017 42.0987 132.784 43.0831 131.558 43.5713C130.333 44.3116 128.613 44.7999 127.387 45.5401C128.369 47.5089 129.351 49.7219 130.333 51.6906C131.071 53.9036 132.297 56.3685 132.791 58.5814C134.268 62.519 135.25 66.7007 136.232 70.8903C136.97 74.5838 137.457 78.5214 137.457 81.9628ZM48.6048 45.5401V45.296C46.6411 44.3116 44.434 43.5713 42.7138 42.5869C40.9936 41.3584 39.2734 40.122 37.8046 39.1376C36.3279 38.3974 34.8591 37.413 33.6338 36.4286C32.4084 35.4442 31.4266 34.4598 30.4448 33.4754C24.0589 39.6259 19.4011 46.5167 16.4556 54.6438C13.2666 62.7631 11.0515 71.8747 10.0697 81.7187H40.2631C40.2631 74.8279 41.245 68.1813 42.9651 61.5346C44.4418 54.6438 46.6411 49.4777 48.6048 45.5401ZM82.7177 81.7187V53.4153C80.7541 53.6594 78.2955 53.6594 76.0884 53.4153C73.6299 53.1712 71.1792 52.4309 68.972 51.6906C67.0083 51.1945 64.5498 50.7062 62.5862 49.966C60.379 49.4698 58.164 48.4854 56.4516 47.501C54.975 49.966 53.7496 52.9192 52.7678 56.1165C51.5425 59.0697 50.8041 62.267 50.0658 65.2202C49.5709 68.1734 49.3274 71.3707 49.084 74.0798C48.8405 76.7888 48.5891 79.4979 48.5891 81.7108H82.7099L82.7177 81.7187ZM93.0309 53.9114V81.7187H129.359C129.359 80.2382 129.359 78.5214 129.115 76.5526C128.621 74.8279 128.377 72.615 128.134 70.6462C127.395 67.693 126.657 64.4957 125.675 61.5425C124.693 58.8334 123.711 56.1244 122.486 53.9114C121.991 52.6829 121.504 51.2024 121.009 50.218C120.271 48.9895 119.533 48.2492 119.046 47.5089C116.344 49.4777 112.66 50.7062 108.245 51.6906C104.075 52.675 99.1654 53.6594 94.7433 53.9036H93.0231L93.0309 53.9114ZM40.2553 89.838H10.0619C10.0619 94.0197 10.8002 98.6976 12.0255 104.36C13.2509 110.266 15.7094 115.684 18.4114 121.591C19.6367 124.544 21.1134 127.497 22.5822 130.45C24.3024 133.159 26.2661 136.113 28.2298 138.822C29.7064 137.837 31.1753 137.097 32.4006 136.357C33.8773 135.616 35.5896 134.632 37.0663 133.892C38.7865 133.151 40.5066 132.411 42.4703 131.427C44.1905 130.687 46.3976 129.702 48.6048 128.718C46.6411 122.567 44.434 116.661 42.9573 110.014C41.2371 103.612 40.2553 97.217 40.2553 90.0821V89.838ZM82.7177 118.63V89.838H48.597C48.597 91.8068 48.8405 94.76 49.3353 97.7132C49.5788 100.666 50.3171 103.864 50.812 107.069C51.7938 110.518 52.5322 113.96 53.514 116.913C54.4958 119.866 55.4777 122.331 56.4595 124.544C60.8817 122.819 65.296 121.591 68.2415 120.85C71.4305 119.866 74.376 119.126 77.3216 118.882H80.0236C81.0054 118.638 81.9872 118.638 82.7256 118.638L82.7177 118.63ZM93.0309 89.838V118.385C94.7511 118.63 96.7148 118.882 98.6785 119.126C100.886 119.37 103.588 119.866 105.795 120.354L109.479 121.095C110.704 121.591 112.181 121.835 113.406 122.079C114.883 122.575 116.352 122.819 117.828 123.307C119.054 123.804 120.287 124.048 121.269 124.536C124.458 116.417 126.421 109.77 127.654 104.108C128.88 98.6897 129.375 94.0197 129.375 90.0821V89.838H93.0466H93.0309ZM165.687 90.0821V89.838H137.457V91.3185C137.214 95.9964 136.475 101.407 135.493 107.069C134.512 112.487 132.304 118.882 129.359 126.757C133.286 128.726 136.97 130.694 139.916 132.663C142.861 134.632 145.563 136.845 147.527 138.814C151.698 134.632 155.381 128.97 158.57 121.583C161.759 114.448 163.974 107.061 165.2 99.1858C165.443 97.7053 165.443 96.2326 165.695 94.7521V90.0742L165.687 90.0821ZM82.7177 164.896V126.505C76.5832 127.489 71.4227 128.718 67.4953 129.702C63.568 130.687 60.6225 131.671 58.6588 132.655C60.1355 136.349 61.6043 139.546 63.081 142.499C64.5577 145.208 66.27 148.162 67.7467 150.619C68.2415 151.603 69.2234 152.587 69.9539 153.816C70.6922 154.8 71.1792 156.029 71.9175 157.013C72.6559 158.242 73.3942 159.722 74.1247 161.195C75.1065 162.423 75.8449 163.904 76.8267 164.888L82.7177 164.896ZM93.0309 164.896H98.6785C100.886 163.172 103.101 160.715 104.813 158.006C106.777 155.296 108.984 152.099 110.46 149.39C112.181 146.193 113.901 143.24 115.37 140.286C116.838 137.333 118.072 134.624 119.054 132.655C116.352 131.671 112.668 130.687 108.992 129.702C105.316 128.718 100.155 127.733 93.0388 126.749V164.896H93.0309ZM141.628 144.72V144.476C141.133 143.736 140.151 142.751 139.421 142.011C138.69 141.271 137.457 140.286 136.232 139.546C135.25 138.806 134.025 138.066 132.548 137.333C131.071 136.601 129.108 135.609 127.395 134.624C126.413 136.593 124.693 140.042 122.243 144.712C120.035 149.39 116.108 155.052 111.199 161.203C117.333 160.218 122.737 158.006 127.647 155.052C133.051 152.343 137.708 148.65 141.636 144.712L141.628 144.72ZM50.3171 136.845V136.601C48.597 137.585 45.8949 138.814 43.2008 140.05C40.2553 141.279 37.0663 142.759 34.1208 144.728C35.8409 146.208 37.5611 147.681 39.0299 148.666C40.5066 149.894 42.219 150.878 43.6956 151.863C46.3976 153.588 49.5866 155.312 52.7757 156.785C55.9647 158.258 59.892 159.738 64.8012 161.219C63.081 159.25 61.8557 156.785 60.6303 154.816C59.405 152.847 57.9283 150.878 56.703 148.91C55.4777 146.941 54.4958 144.728 53.514 142.759C52.2887 140.79 51.3068 138.822 50.325 136.853L50.3171 136.845Z" fill="#FEDA00"/>
</svg>
