<svg width="112" height="105" viewBox="0 0 112 105" fill="none" xmlns="http://www.w3.org/2000/svg">
<path d="M98.728 80.0919C93.7138 81.1536 88.9931 83.1904 84.8715 86.0704C78.5129 89.8116 71.6429 92.7278 64.449 94.7394C63.567 95.7047 62.3474 96.3444 61.0085 96.5441C53.5271 97.5418 45.9954 98.1737 38.444 98.4374C34.3735 98.4669 31.878 97.453 31.185 95.8911C30.8995 95.2586 30.7516 94.579 30.7499 93.8922C30.7482 93.2054 30.8927 92.5251 31.175 91.8913C31.4573 91.2575 31.8716 90.6829 32.3938 90.2012C32.916 89.7194 33.5355 89.3402 34.216 89.0858C33.5798 88.7199 32.978 88.3039 32.417 87.8422C31.8185 87.2811 31.185 86.1557 30.996 86.5691C30.2085 88.3738 29.7955 92.7838 27.6815 94.7722C24.7765 97.5252 19.2815 96.6065 16.0335 95.0085C12.467 93.2333 16.2855 89.0596 16.2855 89.0596C15.9798 89.2049 15.646 89.2911 15.304 89.313C14.9621 89.3349 14.6189 89.2921 14.2949 89.1871C13.971 89.0821 13.6729 88.917 13.4184 88.7018C13.1639 88.4865 12.9582 88.2254 12.8135 87.9341C10.9547 85.0245 10.1367 81.634 10.479 78.2577C11.3757 74.5561 13.5226 71.2247 16.6005 68.7585C16.1157 63.8423 16.9058 58.8891 18.9035 54.321C21.542 49.559 25.3363 45.4443 29.981 42.3083C29.981 42.3083 23.198 35.2635 25.725 28.9307C27.3665 24.7897 28.028 24.8193 28.567 24.6388C30.4728 24.088 32.2137 23.1248 33.649 21.8268C35.5801 19.8336 37.9814 18.2913 40.6613 17.3227C43.3412 16.3542 46.2255 15.9864 49.084 16.2486C49.084 16.2486 53.2 4.59364 56.9695 6.8577C59.0549 9.85837 60.8505 13.0275 62.335 16.3274C62.335 16.3274 66.8185 13.873 67.3225 14.7885C69.9004 21.2087 70.534 28.1723 69.153 34.9091C67.5237 41.3743 64.4191 47.4316 60.053 52.6639C59.5805 53.4022 65.4815 55.7418 69.2055 65.4182C72.646 74.2775 69.5835 81.6932 70.1225 82.52C70.217 82.6677 70.2485 82.7268 70.2485 82.7268C70.2485 82.7268 74.193 83.0221 82.117 78.4349C86.5011 75.4329 91.6779 73.6128 97.0865 73.1718C98.0566 72.9901 99.0641 73.172 99.8929 73.6783C100.722 74.1846 101.306 74.9751 101.521 75.8805C101.735 76.7858 101.563 77.734 101.041 78.5218C100.519 79.3096 99.6889 79.8712 98.728 80.0919Z" fill="#2188B6"/>
</svg>
